<mxfile host="app.diagrams.net" modified="2023-07-05T07:26:47.478Z" agent="Mozilla/5.0 (Windows NT 10.0; Win64; x64) AppleWebKit/537.36 (KHTML, like Gecko) Chrome/114.0.0.0 Safari/537.36" version="21.5.2" etag="nglxmiqKl2ajwcjQWJ4g" type="github">
  <diagram name="Page-1" id="VFRWDgxxv4eTWvXVUjLN">
    <mxGraphModel>
      <root>
        <mxCell id="0" />
        <mxCell id="1" parent="0" />
      </root>
    </mxGraphModel>
  </diagram>
</mxfile>
